<svg width="237" height="94" xmlns="http://www.w3.org/2000/svg">

 <metadata id="metadata4207">image/svg+xml</metadata>
 <g>
  <title>Layer 1</title>
  <g id="layer1">
   <g fill="#ffffff" id="g4277">
    <g font-size="131.547317px" font-style="normal" font-weight="normal" fill="#ffffff" font-family="MS Mincho" id="text3807-1">
     <path fill="#ffffff" id="path4286" d="m30.317547,79.647804c1.370255,1.370285 2.055397,3.083145 2.055435,5.13855c-0.000038,2.05545 -0.685181,3.768295 -2.055435,5.13858c-1.370316,1.370285 -3.083168,2.05542 -5.138557,2.05542c-2.055458,0 -3.768311,-0.685135 -5.138569,-2.05542c-1.370312,-1.370285 -2.05545,-3.08313 -2.055431,-5.13858c-0.000019,-2.055405 0.68512,-3.768265 2.055431,-5.13855c1.370258,-1.37027 3.083111,-2.05542 5.138569,-2.055435c2.055389,0.000015 3.768242,0.685165 5.138557,2.055435zm-2.05542,-44.191685c-0.342606,4.110901 -0.685173,7.707901 -1.027718,10.790993c1.027679,-1.027672 2.226685,-2.055382 3.597,-3.083138c4.795952,-3.083092 8.050385,-6.166237 9.763283,-9.24942c1.712799,-3.083084 2.569229,-6.508797 2.569275,-10.277142c-0.000046,-6.166203 -1.541618,-10.962193 -4.62471,-14.387981c-2.740608,-3.083061 -7.022743,-4.62463 -12.84642,-4.62471c-6.166298,0.00008 -10.962296,1.541649 -14.387985,4.62471c-3.42572,3.425789 -5.13858,6.68021 -5.138561,9.763271c-0.000019,1.02779 0.171268,1.712929 0.513851,2.055428c0.685127,0.685211 1.541557,1.37035 2.56929,2.055431c1.37027,0.685211 2.226688,1.541626 2.569279,2.569283c0.68512,1.027779 1.027699,2.226776 1.027721,3.597c-0.000023,1.712906 -0.513882,2.911903 -1.54158,3.596985c-1.027733,0.685211 -2.39801,1.027779 -4.110851,1.027725c-2.055439,0.000053 -3.768291,-0.685097 -5.138569,-2.055435c-1.370293,-1.370216 -2.055431,-3.939499 -2.05542,-7.707848c-0.000011,-6.16621 2.569267,-11.818619 7.707848,-16.957272c5.138542,-4.79591 11.476101,-7.193897 19.012703,-7.194c7.536522,0.000103 13.702789,2.22681 18.49884,6.680141c4.795937,4.45351 7.193932,10.27721 7.193985,17.47113c-0.000053,3.768349 -0.685196,7.194061 -2.055428,10.277138c-1.370338,3.425758 -4.453468,6.508904 -9.24942,9.24942c-4.453468,2.740608 -8.221741,5.138615 -11.30484,7.193989c-2.055466,2.055466 -3.083176,4.967323 -3.083138,8.735565l0,9.24942l-4.110863,0l0,-5.138565c-0.000019,-8.221664 -0.685169,-17.642368 -2.05542,-28.262119c-1.02774,-5.481079 -1.541599,-10.962212 -1.541569,-16.443409c-0.000031,-2.740498 0.342548,-4.967209 1.02771,-6.680138c1.027691,-1.370201 2.56926,-2.055351 4.62471,-2.055431c2.397968,0.00008 3.939541,0.85651 4.624706,2.56929c0.685112,1.712929 1.027687,3.768349 1.027725,6.166279c-0.000038,3.08321 -0.685181,8.564342 -2.055435,16.443409z"/>
    </g>
    <g font-size="28px" font-style="normal" font-weight="normal" fill="#ffffff" font-family="Aleo" id="text3948">
     <path fill="#ffffff" id="path4289" d="m96.244537,0.730991l-4.028885,0l-3.067322,0l0,1.998478c-0.000153,0.587463 0.283371,0.941891 0.85054,1.063271c0.063904,0.01133 0.802872,0.114113 2.216949,0.308342l-0.000183,11.572399c-0.000427,0.328831 0.007996,0.683022 0.025612,1.062569c0.017189,0.38195 0.048286,0.77018 0.093491,1.164673l-12.902473,-16.438282c-0.125763,-0.159538 -0.23909,-0.287048 -0.340034,-0.382511c-0.102455,-0.096477 -0.207314,-0.17017 -0.314575,-0.221058c-0.108437,-0.051109 -0.230263,-0.085072 -0.365471,-0.101902c-0.136063,-0.01693 -0.306068,-0.02541 -0.51004,-0.025429l-2.396881,0l-2.575401,0l0,1.998501c-0.000183,0.58746 0.283401,0.941879 0.850731,1.063271c0.049789,0.008801 0.120987,0.021721 0.213501,0.0387c0.092506,0.016998 0.261322,0.047447 0.506401,0.091339c0.245064,0.043591 0.580002,0.103008 1.004791,0.17828l0,17.840488c-0.424789,0.074963 -0.759682,0.134373 -1.004677,0.178253c-0.244995,0.043877 -0.413864,0.074337 -0.506607,0.091389c-0.092697,0.017021 -0.163887,0.0299 -0.213409,0.03867c-0.567337,0.121471 -0.850914,0.475891 -0.850731,1.063259l0,1.998508l2.575401,0l4.02887,0l3.065941,0l0,-1.998508c0.000175,-0.587429 -0.283409,-0.941849 -0.850761,-1.063259c-0.052193,-0.009201 -0.790596,-0.111938 -2.215179,-0.30814l0.000183,-11.725521c-0.000183,-0.294628 -0.009003,-0.620419 -0.025604,-0.97739c-0.0168,-0.354149 -0.04229,-0.71397 -0.076492,-1.07946l12.851486,16.370319c0.226593,0.294914 0.458969,0.498894 0.697098,0.611938c0.237434,0.113464 0.537735,0.170181 0.900909,0.170181l2.362755,0l0,-21.211086c0.423515,-0.074772 0.758308,-0.13422 1.004372,-0.178341c0.24604,-0.04409 0.415131,-0.0746 0.507309,-0.091541c0.09211,-0.016918 0.16317,-0.029789 0.21312,-0.038628c0.567383,-0.121452 0.850906,-0.475872 0.850586,-1.063263l0,-1.998489l-2.575317,-0.000019z"/>
     <path fill="#ffffff" id="path4291" d="m108.5065,7.5989c-1.303322,0.000011 -2.487648,0.209682 -3.552971,0.62899c-1.065331,0.41935 -1.974815,1.014339 -2.728477,1.784981c-0.753647,0.77066 -1.337311,1.711311 -1.750954,2.821941c-0.413658,1.110661 -0.620483,2.351639 -0.620483,3.722958c0,1.382652 0.206825,2.629292 0.620483,3.739933c0.413643,1.110649 0.997307,2.056969 1.750954,2.838959c0.753662,0.78199 1.663147,1.382652 2.728477,1.801979c1.065323,0.419327 2.249649,0.628998 3.552971,0.62899c1.303299,0.000008 2.484787,-0.209663 3.544456,-0.62899c1.059624,-0.419327 1.963455,-1.019989 2.711464,-1.801979c0.747971,-0.78199 1.325958,-1.72831 1.733978,-2.838959c0.407974,-1.110641 0.611969,-2.357281 0.611984,-3.739933c-0.000015,-1.371319 -0.20401,-2.612297 -0.611984,-3.722958c-0.40802,-1.11063 -0.986008,-2.051281 -1.733978,-2.82196c-0.748009,-0.77063 -1.65184,-1.365631 -2.711464,-1.784981c-1.059669,-0.419239 -2.241158,-0.628899 -3.544456,-0.628971zm0,14.738792c-1.473328,0.000008 -2.561302,-0.49015 -3.263962,-1.470482c-0.702667,-0.98032 -1.053986,-2.40546 -1.053986,-4.27544c0,-1.869968 0.351318,-3.300789 1.053986,-4.292458c0.70266,-0.991631 1.790634,-1.48745 3.263962,-1.487492c1.45063,0.000019 2.524445,0.493011 3.221451,1.478989c0.696983,0.985992 1.045479,2.419643 1.045486,4.300941c-0.000008,1.881321 -0.348503,3.309299 -1.045486,4.283939c-0.697006,0.974659 -1.770821,1.462002 -3.221451,1.462002z"/>
     <path fill="#ffffff" id="path4293" d="m129.885712,7.548302c-1.042664,0.000099 -1.983238,0.311729 -2.821732,0.934891c-0.838852,0.623379 -1.569862,1.47337 -2.193069,2.54998l-0.254822,-2.107891c-0.056892,-0.384979 -0.170166,-0.657009 -0.339874,-0.81609c-0.170135,-0.15855 -0.470551,-0.237869 -0.901237,-0.237949l-2.464806,0l0,0.000347l-2.575432,0l0,1.998501c-0.000175,0.587421 0.283417,0.941841 0.850746,1.063271c0.095703,0.017078 0.234734,0.04229 0.417221,0.07563c0.182495,0.033371 0.618317,0.110931 1.307465,0.23267l0,10.700932c-0.689148,0.121769 -1.124969,0.199318 -1.307465,0.232677c-0.182487,0.03336 -0.321564,0.058571 -0.417221,0.075642c-0.567329,0.121441 -0.850922,0.475861 -0.850746,1.063259l0,1.998493l2.575432,0l4.197968,0l0.001015,0l2.574371,0l0,-1.998493c0.000145,-0.587399 -0.283424,-0.941818 -0.850761,-1.063259c-0.095695,-0.017071 -0.234703,-0.042282 -0.417107,-0.075619c-0.182426,-0.03334 -0.617973,-0.110851 -1.306656,-0.232533l0,-7.492661c0.430351,-0.929131 0.957329,-1.634598 1.580925,-2.116417c0.623016,-0.481663 1.370956,-0.722511 2.243774,-0.722561c0.487137,0.00013 0.878143,0.039787 1.172989,0.118988c0.29454,0.079441 0.526917,0.119152 0.697113,0.119141c0.192352,0.000011 0.345352,-0.0425 0.459,-0.12751c0.112991,-0.084961 0.1866,-0.229431 0.220871,-0.433399l0.543976,-3.14484c-0.56691,-0.39679 -1.280899,-0.595192 -2.141998,-0.595211l0.000061,0.000011z"/>
     <path fill="#ffffff" id="path4295" d="m160.973221,7.871941l0.000183,-0.000351l-3.179001,0c-0.001999,0.00013 -0.003998,0.000252 -0.005997,0.000351l-3.911804,0l0,1.998489c-0.000214,0.587421 0.283371,0.941841 0.850739,1.063263c0.0905,0.016068 0.203293,0.03648 0.338333,0.06123c0.134979,0.02478 0.428299,0.07724 0.879959,0.157379l-1.890671,6.816811c-0.147644,0.52142 -0.269577,1.025761 -0.365799,1.513027c-0.09639,0.487331 -0.184143,0.974663 -0.263382,1.46199c-0.113358,-0.46463 -0.229492,-0.92646 -0.348373,-1.385517c-0.119171,-0.458992 -0.252426,-0.932091 -0.39978,-1.419323l-2.855865,-9.519718c-0.068192,-0.226582 -0.204132,-0.41354 -0.407959,-0.560902c-0.204056,-0.147259 -0.459122,-0.22094 -0.765228,-0.221039l-1.852859,0c-0.272018,0.000099 -0.509964,0.073792 -0.713837,0.221039c-0.204132,0.147442 -0.340225,0.3344 -0.40831,0.560902l-2.889832,9.349709c-0.158783,0.510082 -0.308929,1.008732 -0.450455,1.495972c-0.141769,0.487358 -0.274918,0.974628 -0.399414,1.461807c-0.079498,-0.487179 -0.161758,-0.974449 -0.246658,-1.461807c-0.0849,-0.48724 -0.195358,-0.985889 -0.331329,-1.495972l-1.83667,-6.847111c0.3741,-0.06662 0.620407,-0.110809 0.738922,-0.13258c0.118515,-0.02174 0.221451,-0.040367 0.308838,-0.055889c0.567352,-0.121429 0.850937,-0.475849 0.850754,-1.063271l0,-1.998489l-3.76062,0c-0.001999,-0.000088 -0.005005,-0.00021 -0.007004,-0.00034l-3.331757,0l0.000198,0.00034l-1.395813,0l0,1.998489c-0.000168,0.587421 0.283417,0.941841 0.850754,1.063271c0.090897,0.016251 0.210571,0.03804 0.359131,0.065372c0.148575,0.027348 0.564148,0.101307 1.24675,0.221867l4.463806,14.0919l3.212967,0c0.452927,0.000122 0.758911,-0.249199 0.917984,-0.747971l3.17865,-10.046658c0.101883,-0.339951 0.192642,-0.677132 0.272263,-1.011532c0.079407,-0.33411 0.152985,-0.67128 0.220886,-1.011517c0.056702,0.328876 0.127563,0.660358 0.212677,0.99445c0.085007,0.334457 0.178467,0.665939 0.280273,0.99445l3.14502,10.080639c0.158447,0.498756 0.419144,0.748093 0.78212,0.747978l3.382813,0l4.463638,-14.091377c0.683884,-0.120819 1.100174,-0.194931 1.248932,-0.222321c0.148697,-0.027359 0.268478,-0.049122 0.35939,-0.065281c0.567291,-0.121429 0.850891,-0.475849 0.850739,-1.063271l0,-1.998489l-1.3983,0z"/>
     <path fill="#ffffff" id="path4297" d="m172.005203,22.250572c-0.049896,-0.008801 -0.121048,-0.02169 -0.21344,-0.038681c-0.092392,-0.01696 -0.2612,-0.047409 -0.506485,-0.091358c-0.2453,-0.043941 -0.580215,-0.103382 -1.004745,-0.178303l0,-14.07135l-4.198715,0l-2.575424,0l0,1.998501c-0.000183,0.587452 0.283401,0.941872 0.850754,1.063271c0.049805,0.008801 0.120987,0.021709 0.213516,0.0387c0.092499,0.01701 0.261307,0.047459 0.506378,0.091339c0.245056,0.043812 0.579987,0.10323 1.004791,0.17828l0,10.70126c-0.424805,0.074963 -0.759735,0.134392 -1.004791,0.17828c-0.245071,0.043892 -0.413864,0.074352 -0.506378,0.091362c-0.092514,0.016991 -0.163696,0.029881 -0.213516,0.038677c-0.567352,0.121471 -0.850937,0.475903 -0.850754,1.063271l0,1.998501l2.575424,0l4.198715,0l2.575409,0l0,-1.998501c0,-0.58725 -0.283585,-0.941669 -0.850739,-1.063248zm-1.095688,-19.462631c0,-0.37397 -0.0737,-0.7253 -0.220993,-1.053978c-0.147339,-0.32864 -0.34285,-0.611973 -0.586502,-0.849991c-0.243652,-0.23798 -0.529816,-0.427811 -0.85849,-0.569492c-0.328659,-0.14164 -0.679977,-0.212479 -1.05397,-0.212498c-0.362671,-0.000561 -0.705505,0.070278 -1.028488,0.212498c-0.322998,0.141602 -0.6035,0.331432 -0.841492,0.5695c-0.238007,0.237892 -0.427841,0.521233 -0.569489,0.85001c-0.141678,0.328602 -0.212509,0.679932 -0.212509,1.053993c0,0.362667 0.070801,0.702667 0.212509,1.019978c0.141647,0.31736 0.331482,0.59502 0.569489,0.832989c0.237991,0.237942 0.518494,0.427773 0.841492,0.569504c0.322983,0.141376 0.665817,0.212208 1.028488,0.212486c0.373993,0.000023 0.725311,-0.070808 1.05397,-0.212486c0.328659,-0.141651 0.614822,-0.331482 0.85849,-0.569504c0.243652,-0.237888 0.439133,-0.515549 0.586487,-0.83297c0.147293,-0.317329 0.220963,-0.657337 0.221008,-1.020039z"/>
     <path fill="#ffffff" id="path4299" d="m187.460175,21.181431c-0.169891,-0.260712 -0.424911,-0.39106 -0.765045,-0.391071c-0.260468,0.000011 -0.495621,0.082161 -0.70546,0.246483c-0.21138,0.165588 -0.457855,0.346928 -0.739441,0.54401c-0.283539,0.198578 -0.631989,0.37991 -1.045334,0.543999c-0.413773,0.164318 -0.954926,0.246479 -1.623459,0.246479c-0.668839,-0.00005 -1.269516,-0.127499 -1.802017,-0.382351c-0.5327,-0.255108 -0.986008,-0.629097 -1.359909,-1.121967c-0.37442,-0.49353 -0.660629,-1.102692 -0.858582,-1.827461c-0.198242,-0.725151 -0.297363,-1.552448 -0.297348,-2.48188c0,-0.895618 0.090591,-1.69743 0.271912,-2.405441c0.181366,-0.708248 0.456238,-1.311707 0.8246,-1.810379c0.368179,-0.49855 0.829971,-0.88102 1.385361,-1.1474c0.555786,-0.26638 1.201859,-0.399578 1.938217,-0.39959c0.58992,-0.000038 1.32756,0.11063 2.212952,0.332012c0.132019,1.355068 0.223114,2.17556 0.2733,2.461498c0.090698,0.42276 0.354996,0.63406 0.79274,0.633888l1.398911,0l0.412506,0l0.145432,0l0.001999,-5.365108c-2.249771,-0.838749 -4.080627,-1.258148 -5.492584,-1.258179c-1.370911,0.000008 -2.583511,0.226688 -3.637802,0.680038c-1.053925,0.45332 -1.937897,1.079479 -2.651901,1.87849c-0.71431,0.79937 -1.255463,1.745628 -1.623459,2.838799c-0.368362,1.09375 -0.552475,2.280872 -0.552368,3.561333c-0.000183,1.42802 0.206589,2.700138 0.6203,3.81636c0.413589,1.116219 0.974594,2.0597 1.683029,2.830429c0.707916,0.770649 1.538055,1.35709 2.490402,1.759342c0.951935,0.402374 1.966263,0.603569 3.042938,0.603577c0.610718,0 1.228271,-0.045288 1.852707,-0.135887c0.623749,-0.09082 1.22731,-0.246666 1.810715,-0.467522c0.584091,-0.221382 1.147934,-0.51606 1.691559,-0.884029c0.542847,-0.367302 1.04718,-0.823391 1.513046,-1.368263l-1.207916,-1.530209z"/>
     <path fill="#ffffff" id="path4301" d="m209.201859,22.25074c-0.049698,-0.008801 -0.120789,-0.021679 -0.213379,-0.0387c-0.092606,-0.01701 -0.261536,-0.047459 -0.506668,-0.091358c-0.24527,-0.043941 -0.580139,-0.103382 -1.004639,-0.178291l0,-7.73061c-0.000015,-0.97506 -0.127472,-1.867489 -0.382339,-2.677319c-0.255142,-0.810272 -0.629089,-1.50721 -1.121811,-2.09082c-0.493546,-0.583992 -1.108429,-1.037289 -1.844681,-1.359901c-0.736664,-0.322861 -1.580963,-0.484398 -2.532913,-0.484608c-1.099274,0 -2.056854,0.198349 -2.872742,0.595039c-0.816101,0.396709 -1.564087,0.917999 -2.243942,1.563881l0,-9.706631l-4.198883,0l-2.575409,0l0,1.998489c-0.000183,0.58746 0.283401,0.941879 0.850739,1.063271c0.049805,0.0089 0.120987,0.02174 0.21347,0.038658c0.092499,0.016373 0.261292,0.046841 0.506378,0.091393c0.245071,0.043579 0.580032,0.103008 1.004822,0.178288l0,18.521072c-0.424789,0.074959 -0.759705,0.13438 -1.00473,0.17828c-0.244965,0.0439 -0.413818,0.07436 -0.506561,0.09137c-0.092697,0.016991 -0.163834,0.029869 -0.213348,0.038651c-0.567352,0.121468 -0.850952,0.475887 -0.850754,1.063259l0,1.998512l2.575424,0l4.198868,0l2.573151,0l0,-1.998512c0.000183,-0.587429 -0.283401,-0.941849 -0.850739,-1.063259c-0.049408,-0.008701 -0.120468,-0.021603 -0.213318,-0.038662c-0.092804,-0.01701 -0.261505,-0.04744 -0.506104,-0.09129c-0.244583,-0.043839 -0.578918,-0.103191 -1.003006,-0.178051l0,-9.24382c0.566467,-0.566498 1.167084,-1.014057 1.801849,-1.342659c0.634567,-0.328861 1.31456,-0.493301 2.039978,-0.493309c0.985779,0.00013 1.725159,0.291958 2.21814,0.875488c0.493027,0.5839 0.739563,1.408352 0.739609,2.473351l0,11.100693l4.198715,0l2.575394,0l0,-1.998501c0.00029,-0.587372 -0.283249,-0.94183 -0.850571,-1.0634l0,0.000008z"/>
     <path fill="#ffffff" id="path4303" d="m85.016693,46.426838c-0.804657,-0.351318 -2.226967,-0.866974 -4.266937,-1.546974c-0.713989,-0.237984 -1.342987,-0.515656 -1.886978,-0.832993c-1.223984,-0.702637 -1.835983,-1.648956 -1.835983,-2.838966c0,-1.110634 0.38533,-2.005951 1.155998,-2.685966c0.815971,-0.736626 1.937965,-1.104958 3.365959,-1.104988c1.155975,-0.000061 2.493286,0.215271 4.011963,0.645988c0.158531,1.949341 0.249207,2.957993 0.271996,3.02597c0.068001,0.385345 0.300285,0.578011 0.696983,0.577995l1.648987,0l0,-5.592934c-2.323311,-0.929253 -4.598434,-1.393913 -6.825394,-1.393982c-2.226982,0.000023 -4.037453,0.685684 -5.431442,2.056969c-1.303314,1.28067 -1.954971,2.827652 -1.954971,4.640945c0,1.937988 0.606323,3.450966 1.81897,4.53894c0.544014,0.48735 1.167328,0.886841 1.869987,1.198483c0.702644,0.311676 2.130623,0.801826 4.283943,1.470467c0.691315,0.226669 1.308975,0.498672 1.852974,0.815987c1.212616,0.702675 1.818939,1.699997 1.818977,2.991966c-0.000015,1.337318 -0.43634,2.408318 -1.30899,3.212959c-0.430664,0.39666 -0.951981,0.70266 -1.56398,0.917992c-0.611984,0.215332 -1.450645,0.322998 -2.515961,0.322998c-1.065323,0 -2.436646,-0.311668 -4.113968,-0.93499c0,-0.011345 -0.036789,-0.504326 -0.110489,-1.478981c-0.073708,-0.97464 -0.127502,-1.535645 -0.161499,-1.682983c-0.079292,-0.385307 -0.311684,-0.577965 -0.697006,-0.577972l-1.648987,0l0,6.102921l0.969002,0.339996c0.65731,0.215332 1.572472,0.430672 2.745461,0.646011c1.172974,0.215332 2.286469,0.322998 3.340454,0.322983c2.515945,0 4.527588,-0.742317 6.034912,-2.226967c1.416611,-1.405304 2.124947,-3.218628 2.124969,-5.439934c-0.000008,-2.549965 -1.22966,-4.38028 -3.68895,-5.49094z"/>
     <path fill="#ffffff" id="path4305" d="m107.655853,57.221695c-0.113358,-0.022659 -0.461853,-0.093491 -1.045486,-0.212486l-0.875473,-0.178513l-4.776939,-6.017921c-0.294685,-0.464638 -0.634682,-0.821632 -1.019989,-1.070976c0.317314,-0.18132 0.645973,-0.481674 0.985985,-0.901001l4.011955,-4.266956c1.121902,-0.215317 1.824562,-0.351318 2.107964,-0.40799c0.283096,-0.056648 0.424759,-0.260643 0.424988,-0.611992l0,-1.461975l-0.203995,0l-2.753967,0l-4.215935,0l0,1.461975c-0.000023,0.351311 0.175659,0.560974 0.526985,0.62899c0.124657,0.033783 0.311646,0.073448 0.560997,0.119003c0.135979,0.022667 0.260651,0.045326 0.374001,0.067978l-3.875961,4.164951c-0.294662,0.317276 -0.645996,0.475945 -1.053986,0.475983l-0.781975,0l0,-14.738804l-3.042969,0l-2.447975,0l0,1.461983c0,0.351349 0.169998,0.56102 0.509995,0.62899c0.203995,0.045357 0.849998,0.175697 1.937981,0.391006l0,20.07674l-1.937981,0.391006c-0.339996,0.067993 -0.509995,0.277649 -0.509995,0.62899l0,1.461967l7.938904,0l0,-1.461967c-0.000015,-0.351341 -0.170006,-0.560997 -0.509995,-0.62899c-1.167343,-0.238007 -1.813324,-0.368332 -1.937965,-0.391022l0,-5.745918l0.849968,0c0.339996,-0.000053 0.594986,0.036781 0.764999,0.110497c0.169983,0.073654 0.339981,0.229492 0.509995,0.467484l5.660919,7.054909c0.317322,0.39666 0.696991,0.594994 1.138992,0.595001l3.212952,0l0,-1.461983c-0.000015,-0.351318 -0.175674,-0.560974 -0.526993,-0.62896z"/>
     <path fill="#ffffff" id="path4307" d="m117.877266,41.819904c-1.246666,-0.000023 -2.368637,0.21814 -3.365974,0.654488c-0.99733,0.43631 -1.84166,1.036972 -2.53299,1.801956c-0.691322,0.764999 -1.221161,1.668823 -1.589485,2.711464c-0.368324,1.04266 -0.55249,2.164646 -0.55249,3.365955c0,1.484657 0.203987,2.799301 0.611992,3.943939c0.407997,1.144638 0.977486,2.105133 1.708481,2.881462c0.730972,0.776329 1.597961,1.365669 2.600952,1.767998c1.002991,0.402328 2.099472,0.603485 3.289459,0.603485c0.623329,0 1.252327,-0.053833 1.886986,-0.161499c0.634636,-0.107658 1.249481,-0.26915 1.84449,-0.484489c0.594971,-0.21534 1.153145,-0.490166 1.674484,-0.824509c0.521301,-0.334328 0.968964,-0.728157 1.342972,-1.181503l-0.849983,-1.10498c-0.135979,-0.192665 -0.328629,-0.288986 -0.57798,-0.288994c-0.192673,0.000008 -0.422173,0.08783 -0.688492,0.263489c-0.266357,0.175659 -0.597832,0.365494 -0.994476,0.569496c-0.396667,0.204002 -0.869827,0.393829 -1.419479,0.569496c-0.549652,0.175659 -1.204147,0.263489 -1.96347,0.263489c-0.815987,0 -1.552658,-0.133148 -2.209976,-0.39949c-0.657326,-0.266342 -1.223984,-0.668663 -1.699966,-1.207008c-0.475998,-0.538322 -0.849998,-1.209816 -1.121994,-2.014473c-0.271996,-0.804642 -0.419319,-1.750961 -0.441978,-2.838966l11.457848,0c0.28331,0.000008 0.475967,-0.079323 0.577995,-0.237984c0.101967,-0.158646 0.152962,-0.475967 0.152992,-0.952011c-0.000031,-1.223976 -0.178505,-2.314789 -0.535484,-3.272472c-0.357025,-0.957634 -0.852852,-1.762291 -1.487495,-2.413971c-0.634659,-0.651627 -1.388321,-1.150291 -2.260956,-1.495979c-0.872665,-0.345512 -1.824669,-0.518311 -2.85598,-0.518387zm0.067986,2.226868c0.69133,-0.000053 1.306152,0.116112 1.844498,0.34848c0.538315,0.232307 0.994476,0.560966 1.368484,0.985977c0.373947,0.425011 0.657295,0.929344 0.850006,1.512985c0.192596,0.583668 0.288925,1.226818 0.288986,1.929455l-9.366859,0c0.203987,-1.495956 0.725304,-2.666111 1.563957,-3.510448c0.838646,-0.844299 1.988953,-1.266449 3.450928,-1.266449z"/>
     <path fill="#ffffff" id="path4309" d="m131.653641,44.76086l-0.255005,-2.03997c-0.113342,-0.419319 -0.385345,-0.628983 -0.815994,-0.628998l-1.801971,0l-2.447968,0l0,1.461983c0,0.351318 0.169998,0.560974 0.509995,0.628998c0.203995,0.045319 0.849976,0.175652 1.937973,0.390991l0,18.087765l-1.937973,0.390999c-0.339996,0.068001 -0.509995,0.277657 -0.509995,0.62899l0,1.46199l7.92189,0l0,-1.46199c0,-0.351334 -0.170013,-0.561005 -0.509979,-0.62899c-0.090714,-0.022713 -0.427811,-0.090706 -1.011475,-0.204002c-0.583679,-0.113342 -0.892487,-0.175674 -0.926498,-0.187012l0,-5.133934c1.212646,1.348648 2.872955,2.022972 4.980942,2.022972c2.107971,0 3.841934,-0.861313 5.201935,-2.583954c1.314636,-1.654648 1.971954,-3.779617 1.97197,-6.374924c0.000031,-2.82196 -0.589294,-5.009266 -1.76799,-6.561932c-1.144653,-1.495972 -2.725647,-2.243958 -4.742935,-2.24398c-2.232651,0.000031 -4.164948,0.991692 -5.796921,2.974998zm0.152985,10.403835l0,-8.329891c1.314636,-1.733963 2.861618,-2.600952 4.640945,-2.600975c2.92395,0.000023 4.385925,2.119324 4.385941,6.357929c0,2.119308 -0.430649,3.751297 -1.291992,4.895935c-0.861313,1.144653 -2.113632,1.716972 -3.756943,1.71698c-1.643311,0 -2.969284,-0.679993 -3.977951,-2.039978z"/>
     <path fill="#ffffff" id="path4311" d="m152.143372,59.584679c0.781982,-0.000015 1.541321,-0.138855 2.278,-0.416512c0.736633,-0.277657 1.365631,-0.660149 1.886963,-1.147469l-0.883987,-1.444984c-0.124664,-0.192657 -0.266327,-0.289009 -0.424973,-0.289009c-0.090698,0 -0.195511,0.042511 -0.314499,0.127502c-0.119003,0.085007 -0.263504,0.178505 -0.433487,0.280495c-0.169998,0.101997 -0.371155,0.195496 -0.6035,0.280502c-0.23233,0.084999 -0.507156,0.127502 -0.824493,0.127502c-0.555344,0 -1.008667,-0.175667 -1.359985,-0.526993c-0.351349,-0.351341 -0.527008,-0.889671 -0.527008,-1.614998l0,-10.335873l4.929947,0l0,-2.19297l-4.929947,0l0,-5.932922l-1.529968,0c-0.192673,-0.000328 -0.351334,0.053513 -0.475998,0.161491c-0.124664,0.107521 -0.198334,0.246361 -0.220993,0.416496l-0.696991,5.32093l-2.82196,0.357002l0,1.206978c0,0.226669 0.062302,0.393829 0.186981,0.50148c0.124664,0.107674 0.277664,0.161514 0.459,0.161499l2.073975,0l0,10.539867c0,1.427979 0.365494,2.521629 1.096497,3.28096c0.730972,0.759331 1.776459,1.139008 3.136429,1.139023z"/>
     <path fill="#ffffff" id="path4313" d="m160.66626,38.190594c0.198334,0.198708 0.425079,0.354561 0.680222,0.467529c0.254898,0.113358 0.529648,0.170074 0.824265,0.170181c0.294785,-0.000015 0.572495,-0.05674 0.83316,-0.170181c0.260559,-0.112808 0.490036,-0.268654 0.688416,-0.467529c0.198257,-0.19796 0.356842,-0.424583 0.475708,-0.679871c0.11937,-0.254852 0.179001,-0.529671 0.178894,-0.824463c0.000015,-0.294411 -0.059601,-0.574921 -0.178894,-0.841499c-0.119049,-0.266121 -0.277618,-0.498383 -0.475708,-0.696777c-0.198486,-0.198494 -0.427948,-0.354332 -0.688416,-0.467529c-0.260666,-0.113281 -0.538376,-0.169907 -0.83316,-0.16983c-0.294617,-0.000061 -0.569366,0.056534 -0.824265,0.16983c-0.255142,0.113197 -0.481873,0.269035 -0.680222,0.467529c-0.198257,0.198395 -0.354111,0.430656 -0.467529,0.696777c-0.113327,0.266579 -0.169937,0.547089 -0.16983,0.841499c-0.000107,0.29496 0.056503,0.569778 0.16983,0.824463c0.113419,0.255211 0.269272,0.481827 0.467529,0.679871zm4.935532,19.026562c-0.211029,-0.042114 -0.570801,-0.113739 -1.0793,-0.214912c-0.50853,-0.101158 -0.793793,-0.157898 -0.855789,-0.170219l0,-14.740086l-5.478668,0l0,1.4674c0.003006,0.154182 0.052002,0.289124 0.147079,0.404816c0.095108,0.11573 0.218658,0.190231 0.370621,0.223495c0.211029,0.042122 0.570816,0.113754 1.079407,0.214905c0.50856,0.101181 0.793839,0.157921 0.855865,0.170227l0,12.259075c-0.061996,0.012329 -0.347275,0.069061 -0.855804,0.170219c-0.508545,0.101158 -0.868362,0.172798 -1.079468,0.214912c-0.151962,0.033264 -0.275513,0.107758 -0.370621,0.223473c-0.095093,0.115715 -0.144135,0.250664 -0.147079,0.404846l0,1.467361l7.931625,0l0,-1.467361c-0.002991,-0.154243 -0.051987,-0.289185 -0.14711,-0.404808c-0.095093,-0.115631 -0.218719,-0.190079 -0.370758,-0.223343z"/>
     <path fill="#ffffff" id="path4315" d="m181.649963,56.898705l-0.849991,-1.104996c-0.12468,-0.192657 -0.303162,-0.288986 -0.535492,-0.288986c-0.232315,0 -0.45047,0.090675 -0.654495,0.271988c-1.110657,0.951996 -2.374298,1.427994 -3.790924,1.427994c-1.552658,0 -2.770981,-0.560989 -3.654953,-1.682983c-0.906662,-1.167313 -1.359985,-2.776642 -1.359985,-4.827957c0,-2.028625 0.436325,-3.615265 1.30899,-4.759922c0.441971,-0.566628 0.97464,-0.994453 1.597977,-1.283478c0.623322,-0.288986 1.243805,-0.439156 1.861465,-0.4505c0.617645,-0.011322 1.255142,0.034004 1.912476,0.135994c0.294647,0.045296 0.713989,0.152954 1.258011,0.322983c-0.000198,0.034004 0.028091,0.413651 0.084991,1.138969c0.05661,0.725342 0.101898,1.15033 0.135986,1.274982c0.05661,0.317307 0.249283,0.47596 0.578003,0.476006l1.359985,0l0,-4.470959c-2.085327,-0.838615 -3.785309,-1.257935 -5.099945,-1.25798c-2.549973,0.000023 -4.555939,0.833015 -6.017914,2.49897c-1.393982,1.609329 -2.090973,3.73431 -2.090973,6.374928c0,2.742622 0.730988,4.918602 2.192963,6.527908c1.393982,1.552643 3.195953,2.328972 5.405945,2.328972c2.799271,0 4.918564,-0.883972 6.35788,-2.651932z"/>
     <path fill="#ffffff" id="path4317" d="m190.239319,41.819904c-2.096649,0.000015 -3.711624,0.504333 -4.84494,1.512978c-1.065338,0.929321 -1.597977,2.090973 -1.597977,3.484932c0,1.337315 0.464661,2.396961 1.393982,3.178951c0.419327,0.351326 0.937805,0.660149 1.555466,0.926483c0.617661,0.26635 1.674484,0.631828 3.170471,1.096489c0.543976,0.158669 1.025635,0.348495 1.444977,0.569489c0.419312,0.221008 0.756485,0.487343 1.01149,0.799011c0.25499,0.311661 0.382477,0.790489 0.382492,1.436478c-0.000015,0.645996 -0.289001,1.223991 -0.866989,1.733978c-0.646011,0.566666 -1.529984,0.849983 -2.651962,0.849983c-1.359985,0 -2.527313,-0.226662 -3.501953,-0.679985c-0.113342,-1.348656 -0.181351,-2.073967 -0.203995,-2.175964c-0.056702,-0.283325 -0.226669,-0.424988 -0.51001,-0.425003l-1.20697,0l0,4.504944c1.847305,0.634651 3.700287,0.946297 5.558929,0.934959c1.858627,-0.01133 3.371613,-0.538322 4.53894,-1.580971c1.121964,-0.985992 1.682953,-2.300629 1.682983,-3.943954c0,-1.257973 -0.464661,-2.266617 -1.393982,-3.025955c-0.419342,-0.339951 -0.89534,-0.623291 -1.427979,-0.849991c-0.532669,-0.226631 -1.079483,-0.433472 -1.640472,-0.620491c-0.561005,-0.186974 -1.266495,-0.410797 -2.11647,-0.671486c-0.849991,-0.260635 -1.501648,-0.657295 -1.954987,-1.189987c-0.260651,-0.294647 -0.390991,-0.730984 -0.391006,-1.309002c0,-0.577965 0.300323,-1.099289 0.900986,-1.56398c0.600647,-0.475975 1.382645,-0.719635 2.345978,-0.730988l0.033997,0c0.736633,0.000008 1.620636,0.119011 2.651962,0.356987c0.124664,1.439323 0.192642,2.181641 0.203995,2.226974c0.056595,0.317268 0.249298,0.475925 0.578003,0.475971l1.342972,0l0,-3.212955l0,-1.206978c-1.801987,-0.600571 -3.297958,-0.900879 -4.48793,-0.900917z"/>
     <path fill="#ffffff" id="path4319" d="m81.072754,71.042961c0.351318,-0.067894 0.526993,-0.277557 0.526993,-0.62899l0,-1.461983l-8.210892,0l0,1.461983c0,0.351357 0.136002,0.555351 0.40799,0.611992c0.272003,0.056702 0.951981,0.192673 2.039978,0.40799l0,19.396744l-1.937973,0.391006c-0.339996,0.067993 -0.509995,0.277649 -0.509995,0.62899l0,1.461967l8.210892,0l0,-1.461967c0,-0.351341 -0.136002,-0.555336 -0.407997,-0.611992c-0.271996,-0.056694 -0.957664,-0.19265 -2.056969,-0.408005l0,-19.396744l1.937973,-0.390991z"/>
     <path fill="#ffffff" id="path4321" d="m89.052162,78.590858l-0.237999,-1.86998c-0.113342,-0.419312 -0.385338,-0.628967 -0.815987,-0.628983l-1.801979,0l-2.447968,0l0,1.461975c-0.000015,0.351326 0.169991,0.560974 0.509987,0.629005c0.203987,0.045288 0.849998,0.175652 1.937981,0.390984l0,12.256836l-1.937981,0.391006c-0.339996,0.067993 -0.510002,0.277649 -0.509987,0.62899l0,1.461967l7.938896,0l0,-1.461967c0.000031,-0.351341 -0.175636,-0.560997 -0.527,-0.62899c-1.212639,-0.249344 -1.858643,-0.379662 -1.937973,-0.391022l0,-10.19986c1.427986,-1.597977 2.980606,-2.396957 4.657944,-2.396965c2.413963,0.000015 3.620934,1.37133 3.620956,4.113945l0,10.964844l5.490921,0l0,-1.461967c-0.000008,-0.351341 -0.175674,-0.560997 -0.526993,-0.629005c-0.192673,-0.045288 -0.838669,-0.175652 -1.937973,-0.391006l0,-8.48288c0.000023,-1.994629 -0.487305,-3.569946 -1.461975,-4.725952c-1.008659,-1.201294 -2.442322,-1.801956 -4.300926,-1.801971c-2.130653,0.000023 -4.034645,0.923683 -5.711945,2.770996z"/>
     <path fill="#ffffff" id="path4323" d="m131.427673,68.951988l-1.172989,0l-18.342758,0l0,5.388924l1.648987,0c0.38533,0.000175 0.600647,-0.11599 0.645996,-0.348473c0.045303,-0.232315 0.147346,-0.988808 0.306,-2.269485l5.745926,0l0,19.107765c-0.872658,0.170006 -1.49881,0.294655 -1.878464,0.373985c-0.379669,0.079308 -0.569489,0.294685 -0.569489,0.646019l0,1.461967l8.210899,0l0,-1.461967c-0.000023,-0.351334 -0.121849,-0.55249 -0.365501,-0.603493c-0.243668,-0.05101 -0.801811,-0.161491 -1.674461,-0.33149c-0.27195,-0.05661 -0.41362,-0.085014 -0.424995,-0.085014l0,-19.107758l5.728928,0c0.147171,1.269348 0.2435,2.022995 0.289017,2.260979c0.045303,0.238014 0.266312,0.35701 0.662994,0.356987l1.648972,0l0,-5.388916l-0.459061,-0.000031z"/>
     <path fill="#ffffff" id="path4325" d="m139.193649,78.403862l0,-10.131866l-5.813934,0l0,1.461975c0,0.351364 0.169998,0.56102 0.509995,0.628998c0.203995,0.04541 0.963318,0.17569 2.277969,0.391006l0,20.076744l-1.937973,0.390984c-0.339996,0.068008 -0.509995,0.277687 -0.509995,0.629005l0,1.461983l7.92189,0l0,-1.461983c0,-0.351318 -0.169998,-0.560997 -0.509979,-0.629005c-0.12468,-0.033997 -0.629013,-0.135986 -1.512985,-0.305977l-0.424988,-0.085007l0,-10.199875c1.427963,-1.597961 2.980606,-2.396942 4.657944,-2.396957c2.41394,0.000015 3.620926,1.37133 3.620941,4.113945l0,10.964859l5.473938,0l0,-1.461983c-0.000031,-0.351318 -0.170029,-0.560997 -0.509995,-0.629005c-0.204025,-0.045288 -0.850006,-0.175652 -1.937988,-0.391006l0,-8.48288c-0.000015,-1.994629 -0.492996,-3.575607 -1.478973,-4.74295c-0.997345,-1.189972 -2.425323,-1.784958 -4.283951,-1.784958c-2.073975,0.000015 -3.921295,0.861328 -5.541916,2.583954z"/>
     <path fill="#ffffff" id="path4327" d="m162.568649,75.819908c-1.246658,-0.000031 -2.368637,0.21814 -3.365952,0.654488c-0.997345,0.436302 -1.84166,1.036972 -2.53299,1.801956c-0.69133,0.764999 -1.221161,1.668823 -1.589493,2.711464c-0.368332,1.042656 -0.552505,2.16465 -0.552505,3.365952c0,1.484657 0.20401,2.799301 0.612,3.943924c0.40799,1.144653 0.977493,2.105148 1.708481,2.881477c0.730988,0.776329 1.597977,1.365654 2.600967,1.76799c1.002975,0.402336 2.099457,0.603493 3.289459,0.603493c0.623322,0 1.252304,-0.053802 1.886963,-0.161499c0.634644,-0.107658 1.249481,-0.26915 1.844498,-0.484489c0.594986,-0.215332 1.153137,-0.490173 1.674484,-0.824509c0.521317,-0.334335 0.968979,-0.728165 1.342987,-1.181503l-0.849991,-1.104988c-0.135986,-0.192657 -0.328644,-0.288979 -0.577988,-0.289001c-0.192657,0.000023 -0.422165,0.087807 -0.688477,0.263504c-0.266357,0.175659 -0.597855,0.365494 -0.994492,0.569496c-0.396683,0.204002 -0.869827,0.393829 -1.419464,0.569489c-0.549667,0.175659 -1.204163,0.263496 -1.963486,0.263496c-0.815979,0 -1.552643,-0.133163 -2.209961,-0.399506c-0.657333,-0.266327 -1.223999,-0.668648 -1.699982,-1.207001c-0.475998,-0.53833 -0.849991,-1.209801 -1.121979,-2.014465c-0.272018,-0.804642 -0.419342,-1.750961 -0.442001,-2.838966l11.457855,0c0.28331,0.000008 0.475983,-0.079292 0.577988,-0.237984c0.10199,-0.158646 0.152985,-0.475967 0.153,-0.952011c-0.000015,-1.223976 -0.178513,-2.314789 -0.535492,-3.272476c-0.35701,-0.957626 -0.852844,-1.762283 -1.487488,-2.413971c-0.634659,-0.651627 -1.388306,-1.150284 -2.260941,-1.495972c-0.872681,-0.34552 -1.824677,-0.518311 -2.856003,-0.518387zm0.067993,2.22686c0.69133,-0.000046 1.306152,0.116112 1.844498,0.348488c0.538315,0.2323 0.994492,0.560966 1.368484,0.985977c0.373947,0.425003 0.657288,0.929337 0.850006,1.512978c0.192596,0.583672 0.288925,1.226822 0.289001,1.929459l-9.366882,0c0.203995,-1.495956 0.725311,-2.666115 1.56398,-3.510452c0.838638,-0.844299 1.988937,-1.266449 3.450912,-1.266449z"/>
     <path fill="#ffffff" id="path4329" d="m192.200623,69.478989c-1.144653,-0.351112 -2.48764,-0.526772 -4.028946,-0.526985l-9.179886,0l0,1.461975c0,0.351364 0.169998,0.561028 0.509995,0.62899c0.203995,0.045395 0.849991,0.175705 1.937988,0.391022l0,19.396759l-1.937988,0.390984c-0.339996,0.067993 -0.509995,0.277657 -0.509995,0.62899l0,1.461967l8.176895,0l0,-1.461967c-0.000015,-0.351334 -0.169998,-0.560997 -0.509995,-0.62899c-1.07666,-0.215332 -1.722641,-0.345665 -1.937958,-0.391014l0,-6.629921l3.450943,0c2.878616,0.000031 5.128235,-0.719635 6.748917,-2.158966c1.552628,-1.382629 2.328949,-3.229942 2.328964,-5.541931c-0.000015,-3.615257 -1.682999,-5.955566 -5.048935,-7.020912zm1.750977,7.012413c-0.000015,1.546997 -0.504349,2.782318 -1.51297,3.705963c-1.008667,0.92366 -2.430984,1.385483 -4.266953,1.385475l-3.450943,0l0,-10.029869l3.450943,0c1.937973,-0.000031 3.385773,0.436295 4.343445,1.308975c0.957611,0.87265 1.436447,2.082481 1.436478,3.629456z"/>
     <path fill="#ffffff" id="path4331" d="m207.527756,91.170692c-1.212662,0 -2.119308,-0.356972 -2.719955,-1.070976c-0.600647,-0.713974 -0.900986,-1.722649 -0.900986,-3.025963l0,-10.981857l-5.473923,0l0,1.461975c0,0.351326 0.169998,0.560974 0.509979,0.629005c0.20401,0.045288 0.849991,0.175652 1.937988,0.390984l0,8.499893c0,2.017319 0.48732,3.592621 1.461975,4.725952c1.031326,1.189995 2.464966,1.784973 4.300949,1.784973c2.153305,0 4.057266,-0.917984 5.711929,-2.75396l0.237991,1.852959c0.113327,0.41935 0.385315,0.628998 0.815994,0.628998l4.266937,0l0,-1.461967c0,-0.351341 -0.17569,-0.561012 -0.526993,-0.629005c-0.192673,-0.045296 -0.838669,-0.175674 -1.937973,-0.391022l0,-14.738785l-3.02597,0l-2.447952,0l0,1.461975c-0.000015,0.351326 0.175644,0.560974 0.526993,0.629005c1.087952,0.215279 1.728271,0.345604 1.920959,0.390984l0,10.216873c-1.393982,1.586639 -2.94664,2.379959 -4.657944,2.379959z"/>
     <path fill="#ffffff" id="path4333" d="m237.038666,84.58728c0.000061,-1.428055 -0.152863,-2.688957 -0.458801,-3.782753c-0.306244,-1.093231 -0.742615,-2.011147 -1.309052,-2.753769c-0.566956,-0.742302 -1.252686,-1.300415 -2.05722,-1.674332c-0.804871,-0.37397 -1.705933,-0.561058 -2.703247,-0.561249c-1.189972,0.000107 -2.246704,0.25235 -3.170288,0.756691c-0.923584,0.504272 -1.742462,1.170082 -2.456635,1.997444l0,-10.302025l-2.944183,0l-0.098389,0l-2.687622,0l0,1.4674c0.003021,0.154274 0.052002,0.289261 0.147095,0.404938c0.095093,0.11573 0.218658,0.190186 0.370605,0.223351c0.178223,0.033699 0.521942,0.093208 1.031219,0.178642c0.509247,0.085388 0.888824,0.148735 1.138702,0.189957l0,19.118713l0,2.460464l0,0.287926c0.036987,0.011696 0.466309,0.093613 1.288025,0.245583c0.821686,0.152023 1.813904,0.304062 2.976654,0.456085c1.162689,0.152039 2.274048,0.233887 3.334076,0.24559c1.07666,-0.000153 2.076874,-0.198425 3.00061,-0.594856c0.923553,-0.396645 1.725342,-0.971817 2.405396,-1.725548c0.679962,-0.753731 1.215546,-1.680214 1.60675,-2.779404c0.390778,-1.09919 0.586212,-2.351501 0.586334,-3.756943c-0.000153,-0.016907 -0.000427,-0.033798 -0.000885,-0.050705c0.000366,-0.016907 0.000641,-0.033905 0.000885,-0.051201l-0.000031,0zm-4.470795,4.921257c-0.430786,0.54966 -0.954926,0.969109 -1.572418,1.258347c-0.555786,0.259483 -1.173615,0.40213 -1.853577,0.427979l-0.214417,0c-0.215515,-0.000397 -0.432159,-0.006981 -0.649933,-0.019981c-0.76239,-0.053207 -1.457275,-0.140266 -2.084625,-0.261147c-0.62735,-0.120895 -1.063568,-0.214592 -1.308624,-0.281143l0,-1.472427l0,-4.30687l0,-4.022766c0.623352,-0.82737 1.306183,-1.467773 2.048492,-1.921165c0.742401,-0.453209 1.606598,-0.679878 2.592682,-0.680046c0.691254,0.000069 1.30896,0.119278 1.853058,0.357613c0.543793,0.237579 1.002777,0.614235 1.376984,1.12999c0.37384,0.516052 0.659912,1.176231 0.858246,1.980545c0.198456,0.804451 0.29776,1.767845 0.297852,2.89019c-0.000366,0.089691 -0.002014,0.178223 -0.003998,0.26564c-0.006012,0.976227 -0.117706,1.848114 -0.336548,2.615662c-0.238464,0.810066 -0.572968,1.489937 -1.00351,2.039597l0.000336,-0.000015z"/>
    </g>
   </g>
  </g>
 </g>
</svg>